<svg xml:space="preserve" viewBox="114.26972677595629 0 133.89289617486338 46.83425414364641" y="0px" x="0px" xmlns:xlink="http://www.w3.org/1999/xlink" xmlns="http://www.w3.org/2000/svg" id="Layer_1" version="1.1" style="max-height: 500px" width="133.89289617486338" height="46.83425414364641">
<title>icon-trust-2</title>
<desc>Created with Sketch.</desc>
<g id="Page-1">
	<g id="icon-trust-2">
		<g id="Group">
			<g>
				<path d="M0.6,24.3v-23C0.6,1.1,0.7,1,0.9,1H13c0.2,0,0.3,0.2,0.3,0.3v3.8c0,0.2-0.2,0.3-0.3,0.3H5.3&#10;&#9;&#9;&#9;&#9;&#9;v4.9h6c0.2,0,0.3,0.2,0.3,0.3v3.9c0,0.2-0.1,0.3-0.3,0.3h-6v5.3H13c0.2,0,0.3,0.2,0.3,0.3v3.8c0,0.2-0.2,0.3-0.3,0.3H0.8&#10;&#9;&#9;&#9;&#9;&#9;C0.7,24.6,0.6,24.5,0.6,24.3z" fill="#4A5A3F" id="Path"/>
				<path d="M30.6,15.2c0-0.2,0.2-0.3,0.3-0.3H35c0.2,0,0.3,0.2,0.3,0.3v2.2c0,5.3-2.8,7.5-8.2,7.5&#10;&#9;&#9;&#9;&#9;&#9;c-5,0-8.2-2-8.2-7.5V8c0-5.3,2.9-7.4,8.2-7.4c5.1,0,8.2,1.9,8.2,7.4v0.8c0,0.2-0.2,0.3-0.3,0.3h-4.1c-0.2,0-0.3-0.2-0.3-0.3V8.2&#10;&#9;&#9;&#9;&#9;&#9;c0-2-1.5-2.8-3.2-2.8H27c-1.2,0-2,0.3-2.5,1C24,7.1,23.8,8,23.8,9.2v7.1c0,3.1,1.7,3.8,3.2,3.8h0.4c1.2,0,2-0.3,2.5-1&#10;&#9;&#9;&#9;&#9;&#9;c0.5-0.6,0.7-1.6,0.7-2.8V15.2z" fill="#4A5A3F" id="Path_1_"/>
				<path d="M55.7,2.8c1.1,1.2,1.6,2.9,1.6,5.3v9.4c0,2.5-0.5,4.2-1.6,5.3c-1.4,1.4-3.5,2.2-6.6,2.2&#10;&#9;&#9;&#9;&#9;&#9;c-3.2,0-5.3-0.7-6.6-2.2c-1-1.1-1.6-2.9-1.6-5.3V8c0-2.4,0.5-4.1,1.6-5.3c1.4-1.5,3.5-2.1,6.6-2.1S54.4,1.3,55.7,2.8z M52.5,9.2&#10;&#9;&#9;&#9;&#9;&#9;c0-3.2-1.7-3.8-3.2-3.8h-0.4c-2.3,0-3.2,1.5-3.2,3.8v7.1c0,3.2,1.7,3.8,3.2,3.8h0.4c2.3,0,3.2-1.6,3.2-3.8V9.2z" fill="#4A5A3F" id="Shape"/>
			</g>
			<g transform="translate(0.000000, 27.000000)">
				<path d="M0.7,10.3c-0.1,0-0.1-0.1-0.1-0.1V1c0-0.1,0-0.1,0.1-0.1h4.8C5.6,0.9,5.6,1,5.6,1v1.5&#10;&#9;&#9;&#9;&#9;&#9;c0,0.1-0.1,0.1-0.1,0.1H2.4v1.9h2.4c0.1,0,0.1,0.1,0.1,0.1V6.2c0,0.1,0,0.1-0.1,0.1H2.4V10c0,0.1-0.1,0.1-0.1,0.1L0.7,10.3z" fill="#4A5A3F" id="Path_2_"/>
				<path d="M12.1,7.5l1.2,2.6c0,0.101,0,0.2-0.1,0.2h-1.7c-0.1,0-0.1,0-0.1-0.1l-1.1-2.4H9.6v2.3&#10;&#9;&#9;&#9;&#9;&#9;C9.6,10.2,9.5,10.2,9.5,10.2H7.9c-0.1,0-0.1-0.101-0.1-0.101V1c0-0.1,0-0.1,0.1-0.1h2.9c1.6,0,2.5,0.899,2.5,2.6v1.8&#10;&#9;&#9;&#9;&#9;&#9;c0,0.5-0.1,0.9-0.3,1.3C12.7,7,12.5,7.3,12.1,7.5z M11.4,3.9c0-1-0.4-1.101-1.5-1.101H9.5V5.9h0.4c0.9,0,1.4,0,1.5-1.101V3.9z" fill="#4A5A3F" id="Shape_1_"/>
				<path d="M15.7,10.1V1c0-0.1,0-0.1,0.1-0.1h1.6c0.1,0,0.1,0.1,0.1,0.1v9.1&#10;&#9;&#9;&#9;&#9;&#9;c0,0.101-0.1,0.101-0.1,0.101h-1.6C15.8,10.3,15.7,10.2,15.7,10.1z" fill="#4A5A3F" id="Path_3_"/>
				<path d="M20.2,10.1V1c0-0.1,0-0.1,0.1-0.1h4.8c0.1,0,0.1,0.1,0.1,0.1v1.5c0,0.1-0.1,0.1-0.1,0.1H22&#10;&#9;&#9;&#9;&#9;&#9;v1.9h2.4c0.1,0,0.1,0.1,0.1,0.1V6.2c0,0.1,0,0.1-0.1,0.1H22V8.4h3.1c0.1,0,0.1,0.1,0.1,0.1V10c0,0.1-0.1,0.1-0.1,0.1h-4.8&#10;&#9;&#9;&#9;&#9;&#9;C20.2,10.3,20.2,10.2,20.2,10.1z" fill="#4A5A3F" id="Path_4_"/>
				<path d="M31.6,0.9h1.6c0.1,0,0.1,0.1,0.1,0.1v9.1c0,0.101-0.1,0.101-0.1,0.101h-1.6&#10;&#9;&#9;&#9;&#9;&#9;c-0.1,0-0.1,0-0.1-0.101L29.4,5.4V10c0,0.1-0.1,0.1-0.1,0.1h-1.6c-0.1,0-0.1-0.1-0.1-0.1V0.9c0-0.101,0-0.101,0.1-0.101h1.7&#10;&#9;&#9;&#9;&#9;&#9;c0.1,0,0.1,0,0.1,0.101l2,4.6V1L31.6,0.9z" fill="#4A5A3F" id="Path_5_"/>
				<path d="M41.9,1.7c0.4,0.5,0.6,1.2,0.6,2v3.7c0,1.699-1,2.8-2.8,2.8h-3.5&#10;&#9;&#9;&#9;&#9;&#9;c-0.1,0-0.1-0.101-0.1-0.101V1c0-0.1,0-0.1,0.1-0.1h3.5C40.7,0.9,41.4,1.2,41.9,1.7z M40.7,4.2c0-0.9-0.5-1.5-1.5-1.5H38v5.8&#10;&#9;&#9;&#9;&#9;&#9;h1.3c0.9,0,1.5-0.5,1.5-1.5V4.2H40.7z" fill="#4A5A3F" id="Shape_2_"/>
				<path d="M46.9,1.1v7.4H50c0.1,0,0.1,0.1,0.1,0.1v1.5C50.1,10.2,50,10.2,50,10.2h-4.8&#10;&#9;&#9;&#9;&#9;&#9;c-0.1,0-0.1-0.101-0.1-0.101V1c0-0.1,0-0.1,0.1-0.1h1.6C46.8,0.9,46.9,1,46.9,1.1z" fill="#4A5A3F" id="Path_6_"/>
				<path d="M55,1c0-0.1,0.1-0.1,0.1-0.1h1.6c0.1,0,0.1,0.1,0.1,0.199L54.7,5.9v4.3&#10;&#9;&#9;&#9;&#9;&#9;c0,0.1-0.1,0.1-0.1,0.1H53l-0.1-0.1V5.9l-2.1-4.7c0-0.101,0-0.2,0.1-0.2h1.6c0.1,0,0.1,0,0.1,0.1l1.2,2.4L55,1z" fill="#4A5A3F" id="Path_7_"/>
			</g>
			<g transform="translate(0.000000, 40.000000)">
				<path d="M4.8,2.9v1.5c0,1.3-0.8,2.1-2.1,2.1h-1v2c0,0.1,0,0.1-0.1,0.1H0.2c0,0-0.1,0-0.1-0.1V1&#10;&#9;&#9;&#9;&#9;&#9;c0-0.1,0-0.1,0.1-0.1h2.4C4,0.8,4.8,1.5,4.8,2.9z M3.3,3.3C3.3,2.5,2.9,2.4,2.1,2.4H1.8V5h0.3c0.6,0,1.2-0.1,1.2-0.9V3.3z" fill="#4A5A3F" id="Shape_3_"/>
				<path d="M7.8,0.8h1.5c0,0,0.1,0,0.1,0.101l2,7.5c0,0.1,0,0.1-0.1,0.1H10c0,0-0.1,0-0.1-0.1&#10;&#9;&#9;&#9;&#9;&#9;L9.5,6.8H7.8L7.4,8.4c0,0,0,0.1-0.1,0.1H5.9c-0.1,0-0.1-0.1-0.1-0.1L7.8,0.8C7.7,0.8,7.7,0.8,7.8,0.8z M9,5.4L8.5,3.6L8,5.4H9z" fill="#4A5A3F" id="Shape_4_"/>
				<path d="M16.4,5.5C16.4,5.4,16.5,5.4,16.4,5.5l1.4-0.1c0.1,0,0.1,0,0.1,0.1v0.7&#10;&#9;&#9;&#9;&#9;&#9;C17.9,7.9,17,8.6,15.2,8.6c-1.6,0-2.7-0.6-2.7-2.399V3.1C12.5,1.4,13.4,0.7,15.2,0.7c1.6,0,2.7,0.6,2.7,2.399V3.4&#10;&#9;&#9;&#9;&#9;&#9;c0,0.1,0,0.1-0.1,0.1h-1.4c-0.1,0-0.1,0-0.1-0.1V3.2c0-0.601-0.5-0.9-1-0.9h-0.1c-0.4,0-0.6,0.101-0.8,0.3&#10;&#9;&#9;&#9;&#9;&#9;c-0.2,0.2-0.2,0.5-0.2,0.9v2.3c0,1,0.6,1.2,1,1.2h0.1c0.4,0,0.7-0.1,0.8-0.3c0.2-0.2,0.2-0.5,0.2-0.9L16.4,5.5z" fill="#4A5A3F" id="Path_8_"/>
				<path d="M25,1l-1.8,2.5l2,4.9c0,0.1,0,0.1-0.1,0.1h-1.6c0,0-0.1,0-0.1-0.1l-1.2-3.5l-0.6,0.8v2.7&#10;&#9;&#9;&#9;&#9;&#9;c0,0.1,0,0.1-0.1,0.1h-1.3c-0.1,0-0.1,0-0.1-0.1V0.9c0-0.101,0-0.101,0.1-0.101h1.3c0.1,0,0.1,0,0.1,0.101V3.3l1.8-2.5&#10;&#9;&#9;&#9;&#9;&#9;c0,0,0,0,0.1,0H25C25,0.8,25,0.9,25,1z" fill="#4A5A3F" id="Path_9_"/>
				<path d="M28.3,0.8h1.5c0,0,0.1,0,0.1,0.101l2,7.5c0,0.1,0,0.1-0.1,0.1h-1.3c0,0-0.1,0-0.1-0.1&#10;&#9;&#9;&#9;&#9;&#9;L30,6.8h-1.7L27.9,8.4c0,0,0,0.1-0.1,0.1h-1.4c-0.1,0-0.1-0.1-0.1-0.1L28.3,0.8L28.3,0.8z M29.5,5.4L29,3.6L28.5,5.4H29.5z" fill="#4A5A3F" id="Shape_5_"/>
				<path d="M35.9,5.6V4.3c0-0.1,0-0.1,0.1-0.1h2.7c0.1,0,0.1,0,0.1,0.1v1.8c0,1.7-0.9,2.4-2.7,2.4&#10;&#9;&#9;&#9;&#9;&#9;c-1.6,0-2.7-0.6-2.7-2.4V3c0-1.7,0.9-2.4,2.7-2.4c1.6,0,2.7,0.601,2.7,2.4v0.3c0,0.101,0,0.101-0.1,0.101h-1.4&#10;&#9;&#9;&#9;&#9;&#9;c-0.1,0-0.1,0-0.1-0.101V3.1c0-0.699-0.4-0.899-1-0.899H36c-0.4,0-0.6,0.1-0.8,0.3C35,2.7,35,3,35,3.4v2.3c0,1,0.5,1.2,1,1.2&#10;&#9;&#9;&#9;&#9;&#9;h0.1c0.7,0,1-0.5,1-1.2V5.6H36C35.9,5.8,35.9,5.7,35.9,5.6z" fill="#4A5A3F" id="Path_10_"/>
				<path d="M40.7,8.4V0.9c0-0.101,0-0.101,0.1-0.101h1.3c0.1,0,0.1,0,0.1,0.101v7.5&#10;&#9;&#9;&#9;&#9;&#9;c0,0.1,0,0.1-0.1,0.1L40.7,8.4C40.8,8.6,40.7,8.5,40.7,8.4z" fill="#4A5A3F" id="Path_11_"/>
				<path d="M47.8,0.8h1.4c0.1,0,0.1,0,0.1,0.101v7.5c0,0.1,0,0.1-0.1,0.1h-1.3c0,0-0.1,0-0.1-0.1&#10;&#9;&#9;&#9;&#9;&#9;l-1.7-3.9v3.8C46.1,8.4,46.1,8.4,46,8.4h-1.3c-0.1,0-0.1,0-0.1-0.101V0.8c0-0.1,0-0.1,0.1-0.1h1.4c0,0,0.1,0,0.1,0.1l1.6,3.8&#10;&#9;&#9;&#9;&#9;&#9;V0.8C47.6,0.9,47.7,0.8,47.8,0.8z" fill="#4A5A3F" id="Path_12_"/>
				<path d="M53.7,5.6V4.3c0-0.1,0-0.1,0.1-0.1h2.7c0.1,0,0.1,0,0.1,0.1v1.8c0,1.7-0.9,2.4-2.7,2.4&#10;&#9;&#9;&#9;&#9;&#9;c-1.6,0-2.7-0.6-2.7-2.4V3c0-1.7,0.9-2.4,2.7-2.4c1.6,0,2.7,0.601,2.7,2.4v0.3c0,0.101,0,0.101-0.1,0.101h-1.4&#10;&#9;&#9;&#9;&#9;&#9;C55,3.4,55,3.4,55,3.3V3.1C55,2.4,54.6,2.2,54,2.2h-0.1c-0.4,0-0.6,0.1-0.8,0.3c-0.2,0.2-0.2,0.5-0.2,0.9v2.3c0,1,0.5,1.2,1,1.2&#10;&#9;&#9;&#9;&#9;&#9;H54c0.7,0,1-0.5,1-1.2V5.6h-1.2C53.8,5.8,53.7,5.7,53.7,5.6z" fill="#4A5A3F" id="Path_13_"/>
			</g>
		</g>
		<g transform="translate(116.000000, 1.000000)" id="Group_1_">
			<path d="M40.5,18.4l-0.2,3H30v-0.9h0.8c0.5,0,0.601-0.2,0.601-0.7v-9.1c0-0.5-0.2-0.7-0.601-0.7H30&#10;&#9;&#9;&#9;&#9;V9.1h10v2.6h-1.5v-0.8c0-0.6-0.2-0.7-0.6-0.7H34.1v4.2h2.7c0.4,0,0.601-0.1,0.601-0.7v-0.4H38.8v3.3H37.4v-0.3&#10;&#9;&#9;&#9;&#9;c0-0.6-0.2-0.7-0.601-0.7h-2.7v4.7H37.7c0.6,0,0.8-0.1,1-0.8l0.2-1.1H40.5L40.5,18.4z" fill="#4A5A3F" id="Path_14_"/>
			<path d="M47.6,21.3h-2.1c-1.6,0-2.8-0.8-2.8-2.4v-5.2h-1.4v-0.8h1c0.8,0,1.4-1,1.4-2.6h1.6v2.6h2.3&#10;&#9;&#9;&#9;&#9;v0.9h-2.3v5.3c0,0.9,0.7,1.5,1.3,1.5h0.9v0.7H47.6z" fill="#4A5A3F" id="Path_15_"/>
			<path d="M57.9,16.4v3.5c0,0.5,0.199,0.7,0.6,0.7h0.8v0.8h-5.1v-0.8h0.6c0.3,0,0.601-0.1,0.601-0.7&#10;&#9;&#9;&#9;&#9;v-3.8c0-1.8-0.301-2.4-1.2-2.4c-0.601,0-1.3,0.2-2,0.8v5.3c0,0.5,0.2,0.7,0.6,0.7H53.4v0.8H48.3v-0.8h0.9c0.3,0,0.6-0.1,0.6-0.7&#10;&#9;&#9;&#9;&#9;v-9.3c0-0.5-0.2-0.7-0.5-0.7H48.4V9.1L52.3,8.6v4.8c0.8-0.5,1.601-0.8,2.8-0.8C56.9,12.6,57.9,13.5,57.9,16.4" fill="#4A5A3F" id="Path_16_"/>
			<path d="M62.7,9.4c0.7,0,1.2,0.5,1.2,1.2c0,0.7-0.5,1.2-1.2,1.2s-1.2-0.5-1.2-1.2&#10;&#9;&#9;&#9;&#9;C61.5,9.9,62,9.4,62.7,9.4z M65.4,21.3H60.1v-0.8H60.9c0.3,0,0.6-0.1,0.6-0.7v-5.4c0-0.5-0.2-0.7-0.5-0.7h-0.9V13l3.9-0.5v7.3&#10;&#9;&#9;&#9;&#9;c0,0.5,0.3,0.7,0.6,0.7H65.4V21.3z" fill="#4A5A3F" id="Shape_6_"/>
			<path d="M74.1,15.6h-1.6l-0.1-0.8c-0.101-0.5-0.5-1.3-1.801-1.3c-1.199,0-1.899,1-1.899,3.3&#10;&#9;&#9;&#9;&#9;c0,2.7,0.7,3.7,2.1,3.7c0.9,0,2-0.3,2.8-0.9l0.101,1.1c-0.8,0.6-1.8,0.9-3.2,0.9c-3.2,0-4.4-1.7-4.4-4.7c0-2.8,1.7-4.2,4.4-4.2&#10;&#9;&#9;&#9;&#9;c1.5,0,2.7,0.5,3.4,0.9v2H74.1z" fill="#4A5A3F" id="Path_17_"/>
			<path d="M80.4,17h-1.5c-1,0-1.5,0.7-1.5,1.9c0,1.1,0.5,1.6,1.199,1.6c0.5,0,1.301-0.2,1.7-0.7V17&#10;&#9;&#9;&#9;&#9;H80.4z M84.4,21.3H81.1l-0.3-0.8c-0.7,0.5-1.7,0.9-2.6,0.9c-2.101,0-3.3-1.2-3.3-2.5c0-1.8,1.3-2.8,3.8-2.8h1.6v-0.9&#10;&#9;&#9;&#9;&#9;c0-1.2-0.5-1.7-1.6-1.7c-1,0-1.3,0.3-1.5,1.1C77.1,14.9,77.1,15.2,77.1,15.5h-1.6v-2c1.2-0.7,2.1-0.9,3.3-0.9c3,0,4,1,4,3.1v4.1&#10;&#9;&#9;&#9;&#9;c0,0.5,0.2,0.7,0.601,0.7h0.8L84.4,21.3C84.3,21.3,84.4,21.3,84.4,21.3z" fill="#4A5A3F" id="Shape_7_"/>
			<path d="M90.3,21.3H85v-0.8h0.8c0.5,0,0.601-0.1,0.601-0.7v-9.3c0-0.5-0.2-0.7-0.601-0.7H85V9.1&#10;&#9;&#9;&#9;&#9;l3.9-0.5v11.3c0,0.5,0.3,0.7,0.6,0.7h0.8V21.3z" fill="#4A5A3F" id="Path_18_"/>
			<path d="M105.8,12.1h-1.5L104,11c-0.2-0.7-0.5-0.8-0.9-0.8h-1.8v9.6c0,0.5,0.3,0.7,0.601,0.7h0.8&#10;&#9;&#9;&#9;&#9;v0.9H97v-0.9h0.9c0.3,0,0.6-0.2,0.6-0.7v-9.6h-1.7C96.4,10.2,96,10.3,95.9,11L95.6,12.1h-1.5l0.2-3h11.3L105.8,12.1z" fill="#4A5A3F" id="Path_19_"/>
			<path d="M109.5,13.6c-1.2,0-1.7,0.8-1.8,2.4h3.1c0.2,0,0.2-0.2,0.2-0.3&#10;&#9;&#9;&#9;&#9;C111.1,14.2,110.3,13.6,109.5,13.6 M105.2,16.9c0-2.7,1.6-4.2,4.399-4.2c2.101,0,3.801,1.5,3.801,3.4c0,0.2,0,0.5-0.101,0.9h-5.5&#10;&#9;&#9;&#9;&#9;c0,2.6,0.7,3.5,2.101,3.5c0.899,0,2-0.3,2.8-0.9l0.1,1.1c-0.8,0.6-1.899,0.9-3.2,0.9C106.5,21.5,105.2,19.8,105.2,16.9" fill="#4A5A3F" id="Shape_8_"/>
			<path d="M119.7,17h-1.5c-1,0-1.5,0.7-1.5,1.9c0,1.1,0.5,1.6,1.2,1.6c0.5,0,1.3-0.2,1.699-0.7V17&#10;&#9;&#9;&#9;&#9;H119.7z M123.7,21.3h-3.3l-0.301-0.8c-0.699,0.5-1.699,0.9-2.6,0.9c-2.1,0-3.3-1.2-3.3-2.5c0-1.8,1.3-2.8,3.8-2.8h1.6v-0.9&#10;&#9;&#9;&#9;&#9;c0-1.2-0.5-1.7-1.6-1.7c-1,0-1.3,0.3-1.5,1.1c-0.1,0.3-0.1,0.6-0.1,0.9H114.8v-2c1.2-0.7,2.101-0.9,3.3-0.9c3,0,4,1,4,3.1v4.1&#10;&#9;&#9;&#9;&#9;c0,0.5,0.2,0.7,0.601,0.7h0.8L123.7,21.3C123.6,21.3,123.7,21.3,123.7,21.3z" fill="#4A5A3F" id="Shape_9_"/>
			<path d="M36.1,26.6h-2V31H36c1,0,1.5-0.8,1.5-2.4C37.5,27,37.1,26.6,36.1,26.6 M35.9,32H34.1v4.1&#10;&#9;&#9;&#9;&#9;c0,0.5,0.2,0.7,0.5,0.7h0.9v0.9H30v-0.9h0.9c0.3,0,0.5-0.2,0.5-0.7V27c0-0.5-0.2-0.7-0.5-0.7H30V25.4h6c3.5,0,4.6,1,4.6,3.1&#10;&#9;&#9;&#9;&#9;C40.5,30.5,39.1,32,35.9,32" fill="#4A5A3F" id="Shape_10_"/>
			<path d="M46.3,33.4h-1.5c-1,0-1.5,0.699-1.5,1.899c0,1.101,0.5,1.601,1.2,1.601&#10;&#9;&#9;&#9;&#9;c0.5,0,1.3-0.2,1.7-0.7v-2.8H46.3z M50.2,37.7h-3.3l-0.2-0.8C46,37.5,45,37.8,44.1,37.8c-2.1,0-3.3-1.2-3.3-2.5&#10;&#9;&#9;&#9;&#9;c0-1.8,1.3-2.8,3.8-2.8H46.2v-0.9c0-1.199-0.5-1.699-1.601-1.699c-1,0-1.3,0.3-1.5,1.1C43,31.3,43,31.6,43,31.9h-1.6v-2&#10;&#9;&#9;&#9;&#9;c1.199-0.7,2.1-0.9,3.3-0.9c3,0,4,1,4,3.1V36.2c0,0.5,0.2,0.7,0.6,0.7h0.8C50.2,36.8,50.2,37.7,50.2,37.7z" fill="#4A5A3F" id="Shape_11_"/>
			<path d="M58.6,31.8h-1.3L57.2,31c-0.101-0.5-0.4-0.6-0.601-0.6c-0.399,0-1.1,0.5-1.6,1.3v4.5&#10;&#9;&#9;&#9;&#9;c0,0.5,0.1,0.7,0.5,0.7h0.9v0.8H51V37h0.9c0.399,0,0.6-0.1,0.6-0.7V30.9c0-0.5-0.2-0.601-0.6-0.601H51v-0.8l3.9-0.5v1.3&#10;&#9;&#9;&#9;&#9;c0.6-0.8,1.5-1.2,2.3-1.2h1.3C58.6,29.1,58.6,31.8,58.6,31.8z" fill="#4A5A3F" id="Path_20_"/>
			<path d="M65.5,37.7h-2c-1.6,0-2.8-0.8-2.8-2.4v-5.2h-1.5V29.2h1c0.8,0,1.399-1,1.399-2.601H63.2&#10;&#9;&#9;&#9;&#9;V29.2h2.2V30.1h-2.2V35.4c0,0.899,0.7,1.5,1.3,1.5h0.9v0.8H65.5z" fill="#4A5A3F" id="Path_21_"/>
			<path d="M76,32.5v3.7c0,0.5,0.2,0.7,0.6,0.7H77.4v0.8H72.3V37H72.9c0.3,0,0.6-0.1,0.6-0.7v-3.7&#10;&#9;&#9;&#9;&#9;c0-2-0.3-2.6-1.2-2.6c-0.6,0-1.3,0.2-2,0.8v5.3c0,0.5,0.2,0.7,0.601,0.7h0.6v0.8h-5.1v-0.8H67.3c0.3,0,0.601-0.1,0.601-0.7v-5.3&#10;&#9;&#9;&#9;&#9;c0-0.5-0.2-0.7-0.5-0.7h-0.9V29.4l3.9-0.5v0.8c0.6-0.4,1.6-0.8,2.8-0.8C75,29,76,30.3,76,32.5" fill="#4A5A3F" id="Path_22_"/>
			<path d="M82.6,29.9c-1.199,0-1.699,0.8-1.8,2.399H83.9c0.199,0,0.199-0.2,0.199-0.3&#10;&#9;&#9;&#9;&#9;C84.1,30.6,83.4,29.9,82.6,29.9 M78.2,33.2c0-2.7,1.6-4.2,4.399-4.2c2.101,0,3.801,1.5,3.801,3.4c0,0.199,0,0.5-0.101,0.899h-5.5&#10;&#9;&#9;&#9;&#9;c0,2.601,0.7,3.5,2.101,3.5c0.899,0,2-0.3,2.8-0.899l0.1,1.1c-0.8,0.6-1.8,0.9-3.2,0.9C79.5,37.9,78.2,36.1,78.2,33.2" fill="#4A5A3F" id="Shape_12_"/>
			<path d="M94.9,31.8H93.6L93.5,31c-0.1-0.5-0.4-0.6-0.6-0.6c-0.5,0-1.101,0.5-1.601,1.3v4.5&#10;&#9;&#9;&#9;&#9;c0,0.5,0.101,0.7,0.5,0.7h0.9v0.8h-5.3V37H88.3c0.4,0,0.601-0.1,0.601-0.7V30.9c0-0.5-0.2-0.601-0.601-0.601H87.4v-0.8L91.3,29&#10;&#9;&#9;&#9;&#9;v1.3c0.601-0.8,1.5-1.2,2.3-1.2H94.9V31.8z" fill="#4A5A3F" id="Path_23_"/>
			<path d="M99.4,37.9c-1,0-2.5-0.4-3.4-1v-2h1.5l0.1,0.8C97.7,36.4,98.4,37.1,99.3,37.1&#10;&#9;&#9;&#9;&#9;c0.9,0,1.601-0.6,1.601-1.5c0-0.899-0.7-1-1.601-1.3c-1.5-0.5-3.3-1.1-3.3-2.8c0-1.6,1.4-2.6,3.5-2.6c1.2,0,2.3,0.3,3.2,0.8v2.1&#10;&#9;&#9;&#9;&#9;h-1.5L101.1,31c-0.1-0.8-0.6-1.2-1.5-1.2c-0.8,0-1.199,0.5-1.199,1.4c0,0.899,0.899,1.2,1.699,1.5c1.5,0.5,3.101,1,3.101,2.5&#10;&#9;&#9;&#9;&#9;C103.4,37,102.1,37.9,99.4,37.9" fill="#4A5A3F" id="Path_24_"/>
			<path d="M113.8,32.7v3.5c0,0.5,0.2,0.7,0.601,0.7h0.8v0.8H110.1v-0.8h0.601&#10;&#9;&#9;&#9;&#9;c0.3,0,0.6-0.101,0.6-0.7v-3.8c0-1.801-0.3-2.4-1.2-2.4c-0.6,0-1.3,0.2-2,0.8v5.3c0,0.5,0.2,0.7,0.601,0.7h0.6v0.8h-5.1v-0.8&#10;&#9;&#9;&#9;&#9;h0.899c0.301,0,0.601-0.1,0.601-0.7v-9.3c0-0.5-0.2-0.7-0.5-0.7h-0.9V25.4l3.9-0.5v4.8c0.8-0.5,1.6-0.8,2.8-0.8&#10;&#9;&#9;&#9;&#9;C112.8,29,113.8,29.8,113.8,32.7" fill="#4A5A3F" id="Path_25_"/>
			<path d="M118.4,25.8c0.699,0,1.199,0.5,1.199,1.2s-0.5,1.2-1.199,1.2c-0.7,0-1.2-0.5-1.2-1.2&#10;&#9;&#9;&#9;&#9;S117.7,25.8,118.4,25.8z M121.1,37.7h-5.3v-0.8h0.8c0.4,0,0.601-0.101,0.601-0.7v-5.3c0-0.5-0.2-0.601-0.5-0.601h-0.9v-0.8&#10;&#9;&#9;&#9;&#9;l3.9-0.5v7.3c0,0.5,0.3,0.7,0.6,0.7h0.8V37.7z" fill="#4A5A3F" id="Shape_13_"/>
			<path d="M127.4,30c-0.601,0-1.301,0.3-1.9,0.9V35.8c0.5,0.5,1.3,0.9,1.7,0.9&#10;&#9;&#9;&#9;&#9;c0.899,0,1.399-0.9,1.399-3.4C128.5,30.9,128.2,30,127.4,30z M125.4,29.7c0.699-0.5,1.5-0.7,2.3-0.7c2.2,0,3.399,1.2,3.399,4.4&#10;&#9;&#9;&#9;&#9;c0,3.1-1.3,4.5-3.5,4.5c-1,0-1.699-0.2-2.3-0.801V40.2c0,0.5,0.3,0.7,0.601,0.7h0.8v0.8h-5.4V41h0.9c0.399,0,0.6-0.2,0.6-0.7&#10;&#9;&#9;&#9;&#9;V30.9c0-0.5-0.2-0.601-0.5-0.601h-1v-0.8l3.9-0.5L125.4,29.7z" fill="#4A5A3F" id="Shape_14_"/>
			<path d="M14.7,35C7.4,31.7,6,25.8,2.5,21.6c-0.2-0.2,0.1-0.6,0.3-0.7c2.7-0.9,4.3,3.6,6,4.5&#10;&#9;&#9;&#9;&#9;C6.5,21.8,4.9,18.7,3.5,13.1c-0.3-1.5,1.2-1.9,1.7-0.6c1,3.1,2.6,6.2,4.2,8.2C9.6,20.9,9.9,20.8,9.8,20.6&#10;&#9;&#9;&#9;&#9;c-1.2-1.7-3.5-6.4-4.6-10C4.9,9.4,6.4,8.9,6.8,10c0.9,2.3,3.5,7.6,5.4,10.1c0.1,0.2,0.5,0.1,0.399-0.1c-2-3.3-3.699-6.7-4.6-9.1&#10;&#9;&#9;&#9;&#9;c-0.4-1,1.1-1.6,1.6-0.5c1.301,2.7,3.2,6.3,5.301,9c0.1,0.2,0.5,0,0.399-0.1c-0.8-1.1-2.5-3.9-3.6-6.3c-0.5-0.9,0.8-1.5,1.3-0.6&#10;&#9;&#9;&#9;&#9;c5.5,9.3,12.5,12.7,8.5,23.2C19.8,26.4,14.5,24,12.4,23.2c-0.2-0.1-0.2-0.1-0.101,0.1c2.8,1.7,7.2,4.8,7.7,14.3&#10;&#9;&#9;&#9;&#9;C18.7,36.3,16.1,35.6,14.7,35 M3.5,0.6C3.3,0.2,2.8,0.4,2.7,0.8C-1.1,15.1,0.1,25,5,31.2c6.6,7.6,15.1,5.3,15.1,8.7&#10;&#9;&#9;&#9;&#9;C20,41.2,20,42.9,20,43c0,0.5,0.2,0.5,0.5,0.3c0.5-0.2,0.9-0.8,1.3-1.5c0.2-0.2,0.3-0.6,0.2-1c-0.1-1.2-0.1-2.2-0.3-3.3&#10;&#9;&#9;&#9;&#9;C33.4,19.4,5.6,7.6,3.5,0.6" fill="#4A5A3F" id="Shape_15_"/>
		</g>
	</g>
</g>
</svg>